<?xml version="1.0" encoding="UTF-8"?>
<svg viewBox="0 0 24 24" version="1.1" xmlns="http://www.w3.org/2000/svg" xmlns:xlink="http://www.w3.org/1999/xlink">
    <g stroke="none" stroke-width="1" fill="none" fill-rule="evenodd">
        <path d="M19.445102,18.1443431 C19.8041114,18.5033526 19.804545,19.0856589 19.445102,19.445102 C19.0856589,19.804545 18.5033526,19.8041114 18.1443431,19.445102 L11.8573421,13.158101 L5.5703411,19.445102 C5.21133166,19.8041114 4.62902529,19.804545 4.26958227,19.445102 C3.91013924,19.0856589 3.91057283,18.5033526 4.26958227,18.1443431 L10.5565833,11.8573421 L4.26958227,5.5703411 C3.91013924,5.21089808 3.91013924,4.62902529 4.26958227,4.26958227 C4.62902529,3.91013924 5.21089808,3.91013924 5.5703411,4.26958227 L11.8573421,10.5565833 L18.1443431,4.26958227 C18.5037862,3.91013924 19.0856589,3.91013924 19.445102,4.26958227 C19.804545,4.62902529 19.804545,5.21089808 19.445102,5.5703411 L13.158101,11.8573421 L19.445102,18.1443431 Z" class="fill" fill="#000000"></path>
    </g>
</svg>