<?xml version="1.0" encoding="UTF-8"?>
<svg viewBox="0 0 24 24" version="1.1" xmlns="http://www.w3.org/2000/svg" xmlns:xlink="http://www.w3.org/1999/xlink">
    <g stroke="none" stroke-width="1" fill="none" fill-rule="evenodd">
        <path d="M15.5559,3.9998 L19.9999,3.9998 L19.9999,5.9998 L3.9999,5.9998 L3.9999,3.9998 L8.4449,3.9998 L8.4449,2.9998 C8.4449,2.3998 8.7999,1.9998 9.3329,1.9998 L14.6659,1.9998 C15.2009,1.9998 15.5559,2.3998 15.5559,2.9998 L15.5559,3.9998 Z M16.4446,18.9998 L16.4446,10.9998 C16.4446,10.3998 16.0896,9.9998 15.5556,9.9998 C15.0226,9.9998 14.6666,10.3998 14.6666,10.9998 L14.6666,18.9998 C14.6666,19.6008 15.0226,19.9998 15.5556,19.9998 C16.0896,19.9998 16.4446,19.6008 16.4446,18.9998 Z M12.8886,18.9998 L12.8886,10.9998 C12.8886,10.3998 12.5336,9.9998 12.0006,9.9998 C11.4666,9.9998 11.1116,10.3998 11.1116,10.9998 L11.1116,18.9998 C11.1116,19.6008 11.4666,19.9998 12.0006,19.9998 C12.5336,19.9998 12.8886,19.6008 12.8886,18.9998 Z M9.3336,18.9998 L9.3336,10.9998 C9.3336,10.3998 8.9776,9.9998 8.4446,9.9998 C7.9116,9.9998 7.5556,10.3998 7.5556,10.9998 L7.5556,18.9998 C7.5556,19.6008 7.9116,19.9998 8.4446,19.9998 C8.9776,19.9998 9.3336,19.6008 9.3336,18.9998 Z M4.8886,7.9998 L19.1116,7.9998 L18.2216,21.1008 C18.2216,21.6008 17.7776,21.9998 17.3336,21.9998 L6.5776,21.9998 C6.1326,21.9998 5.6886,21.6008 5.6886,21.1008 L4.8886,7.9998 Z" class="fill" fill="#B0B8CF"></path>
    </g>
</svg>